# xmcd
#
# Track frame offsets: 
#        150
#        12096
#        22387
#        34193
#        47534
#        59519
#        69498
#        81233
#        92394
#        104039
#        114832
#        125499
#        135805
#
# Disc length: 1944 seconds
#
# Revision: 6
# Processed by: cddbd v1.5.2PL0 Copyright (c) Steve Scherf et al.
# Submitted via: ExactAudioCopy v1.0b4
#
DISCID=a607960d
DTITLE=Robert Johnson - Cross Road Blues (Disco 1)
DYEAR=1936
DGENRE=Blues
TTITLE0=When You Got A Good Friend
TTITLE1=Stop Breakin' Down Blues
TTITLE2=Come On In My Kitchen
TTITLE3=I Believe I'll Dust My Broom
TTITLE4=Phonograph Blues
TTITLE5=Little Queen Of Spades
TTITLE6=I'm A Steady Rollin' Man
TTITLE7=Love In Vain
TTITLE8=Dead Shrimp Blues
TTITLE9=From Four 'Til Late
TTITLE10=Malted Milk
TTITLE11=Honeymoon Blues
TTITLE12=Little  Queen Of Spades
EXTD=
EXTT0=
EXTT1=
EXTT2=
EXTT3=
EXTT4=
EXTT5=
EXTT6=
EXTT7=
EXTT8=
EXTT9=
EXTT10=
EXTT11=
EXTT12=
PLAYORDER=
